<svg width="218" height="50" viewBox="0 0 218 50" fill="none" xmlns="http://www.w3.org/2000/svg">
<circle cx="23.6035" cy="14.3965" r="13.3965" fill="#0077FF"/>
<rect y="1" width="6.63446" height="35.4689" fill="#0077FF"/>
<path d="M64.8664 28.416C62.7757 28.416 60.9837 27.936 59.4904 26.976C58.0184 25.9947 56.9837 24.64 56.3864 22.912L58.9464 21.44C59.7997 24.1493 61.7944 25.504 64.9304 25.504C66.445 25.504 67.6077 25.1947 68.4184 24.576C69.2504 23.9573 69.6664 23.1147 69.6664 22.048C69.6664 21.0027 69.261 20.2027 68.4504 19.648C67.725 19.1573 66.3704 18.592 64.3864 17.952L62.2424 17.248C61.773 17.056 61.1544 16.7787 60.3864 16.416C59.6397 16.032 59.0957 15.648 58.7544 15.264C57.8157 14.24 57.3464 12.992 57.3464 11.52C57.3464 9.55733 58.029 8.02133 59.3944 6.912C60.7597 5.76 62.4237 5.184 64.3864 5.184C66.1357 5.184 67.6717 5.62133 68.9944 6.496C70.317 7.37067 71.309 8.56533 71.9704 10.08L69.4744 11.52C68.5144 9.216 66.8184 8.064 64.3864 8.064C63.1704 8.064 62.189 8.36267 61.4424 8.96C60.6957 9.55733 60.3224 10.368 60.3224 11.392C60.3224 12.3733 60.6744 13.12 61.3784 13.632C62.1037 14.1653 63.3197 14.6987 65.0264 15.232L66.3384 15.648C67.0637 15.9253 67.4584 16.0747 67.5224 16.096C68.205 16.352 68.9517 16.704 69.7624 17.152C70.3384 17.472 70.9144 17.9627 71.4904 18.624C72.237 19.3707 72.6104 20.4907 72.6104 21.984C72.6104 23.9467 71.8957 25.5147 70.4664 26.688C69.0157 27.84 67.149 28.416 64.8664 28.416ZM81.4784 19.744L89.3824 28H85.9264L78.6304 20.416V28H75.8464V5.6H78.6304V19.072L85.5424 12H89.1264L81.4784 19.744ZM98.1876 24.544L102.796 12H105.772L99.2436 28.992C98.5396 30.8053 97.569 32.1813 96.3316 33.12C95.1156 34.08 93.7183 34.5067 92.1396 34.4V31.808C94.1023 31.9573 95.5423 30.8693 96.4596 28.544L96.7476 27.936L89.7716 12H92.7476L98.1876 24.544Z" fill="#0077FF"/>
<path d="M129.28 5.6V8.416H119.36V15.68H128.864V18.496H119.36V28H116.384V5.6H129.28ZM135.38 28H132.596V4.64H135.38V28ZM153.132 25.984C151.51 27.6053 149.516 28.416 147.148 28.416C144.78 28.416 142.785 27.6053 141.164 25.984C139.542 24.3627 138.732 22.368 138.732 20C138.732 17.632 139.542 15.6373 141.164 14.016C142.785 12.3947 144.78 11.584 147.148 11.584C149.516 11.584 151.51 12.3947 153.132 14.016C154.774 15.6587 155.596 17.6533 155.596 20C155.596 22.3467 154.774 24.3413 153.132 25.984ZM147.148 25.696C148.748 25.696 150.092 25.152 151.18 24.064C152.268 22.976 152.812 21.6213 152.812 20C152.812 18.3787 152.268 17.024 151.18 15.936C150.092 14.848 148.748 14.304 147.148 14.304C145.569 14.304 144.236 14.848 143.148 15.936C142.06 17.024 141.516 18.3787 141.516 20C141.516 21.6213 142.06 22.976 143.148 24.064C144.236 25.152 145.569 25.696 147.148 25.696ZM173.581 24.192L177.101 12H180.013L175.053 28H172.205L168.461 16.16L164.717 28H161.869L156.909 12H159.821L163.341 24.16L167.117 12H169.805L173.581 24.192Z" fill="white"/>
</svg>
